<?xml version="1.0" encoding="utf-8"?>
<!-- Generator: Adobe Illustrator 22.0.1, SVG Export Plug-In . SVG Version: 6.00 Build 0)  -->
<svg version="1.1" id="Слой_1" xmlns="http://www.w3.org/2000/svg" xmlns:xlink="http://www.w3.org/1999/xlink" x="0px" y="0px"
	 viewBox="0 0 19.4 25.9" style="enable-background:new 0 0 19.4 25.9;" xml:space="preserve">
<style type="text/css">
	.st0{fill:url(#SVGID_1_);}
	.st1{fill:url(#SVGID_2_);}
	.st2{enable-background:new    ;}
	.st3{fill:#FFFFFF;}
</style>
<title>icon_pdf</title>
<g>
	
		<linearGradient id="SVGID_1_" gradientUnits="userSpaceOnUse" x1="0" y1="464.2404" x2="19.4" y2="464.2404" gradientTransform="matrix(1 0 0 1 0 -451.3071)">
		<stop  offset="0" style="stop-color:#B44F46"/>
		<stop  offset="1" style="stop-color:#C54F46"/>
	</linearGradient>
	<path class="st0" d="M13.5,0H2C0.9,0,0,0.9,0,2v21.8c0,1.1,0.9,2,2,2h15.3c1.1,0,2-0.9,2-2V5.9h-5.9V0z"/>
	
		<linearGradient id="SVGID_2_" gradientUnits="userSpaceOnUse" x1="13.4722" y1="454.271" x2="19.4" y2="454.271" gradientTransform="matrix(1 0 0 1 0 -451.3071)">
		<stop  offset="0" style="stop-color:#B44F46"/>
		<stop  offset="1" style="stop-color:#C54F46"/>
	</linearGradient>
	<path class="st1" d="M13.7,0h-0.3v5.9h5.9V5.7L13.7,0z"/>
	<g class="st2">
		<path class="st3" d="M6.1,14.1v1.2H5.3v-3.5h1.2c0.9,0,1.3,0.4,1.3,1.1c0,0.3-0.1,0.6-0.4,0.8c-0.3,0.2-0.6,0.3-1,0.3H6.1z
			 M6.1,12.4v1.1h0.3c0.4,0,0.6-0.2,0.6-0.6c0-0.3-0.2-0.6-0.6-0.6H6.1z"/>
		<path class="st3" d="M8.4,15.3v-3.5h1.2c1.2,0,1.9,0.6,1.9,1.7c0,0.6-0.2,1-0.5,1.3c-0.3,0.3-0.8,0.5-1.3,0.5L8.4,15.3L8.4,15.3z
			 M9.1,12.4v2.2h0.4c0.3,0,0.6-0.1,0.8-0.3c0.2-0.2,0.3-0.5,0.3-0.8c0-0.3-0.1-0.6-0.3-0.8c-0.2-0.2-0.4-0.3-0.8-0.3H9.1z"/>
		<path class="st3" d="M14.1,12.4h-1.2v0.8h1.1v0.7h-1.1v1.3h-0.8v-3.5h2V12.4z"/>
	</g>
</g>
</svg>
