<?xml version="1.0" encoding="utf-8"?>
<!-- Generator: Adobe Illustrator 22.0.1, SVG Export Plug-In . SVG Version: 6.00 Build 0)  -->
<svg version="1.1" id="Слой_1" xmlns="http://www.w3.org/2000/svg" xmlns:xlink="http://www.w3.org/1999/xlink" x="0px" y="0px"
	 viewBox="0 0 19.4 25.9" style="enable-background:new 0 0 19.4 25.9;" xml:space="preserve">
<style type="text/css">
	.st0{fill:url(#SVGID_1_);}
	.st1{fill:url(#SVGID_2_);}
	.st2{enable-background:new    ;}
	.st3{fill:#FFFFFF;}
</style>
<title>icon_word</title>
<linearGradient id="SVGID_1_" gradientUnits="userSpaceOnUse" x1="0" y1="464.2404" x2="19.4" y2="464.2404" gradientTransform="matrix(1 0 0 1 0 -451.3071)">
	<stop  offset="0" style="stop-color:#4592BB"/>
	<stop  offset="1" style="stop-color:#42ACE2"/>
</linearGradient>
<path class="st0" d="M13.5,0H2C0.9,0,0,0.9,0,2v21.8c0,1.1,0.9,2,2,2h15.3c1.1,0,2-0.9,2-2V5.9h-5.9V0z"/>
<linearGradient id="SVGID_2_" gradientUnits="userSpaceOnUse" x1="13.4722" y1="454.271" x2="19.4" y2="454.271" gradientTransform="matrix(1 0 0 1 0 -451.3071)">
	<stop  offset="0" style="stop-color:#4592BB"/>
	<stop  offset="1" style="stop-color:#42ACE2"/>
</linearGradient>
<path class="st1" d="M13.7,0h-0.3v5.9h5.9V5.7L13.7,0z"/>
<g class="st2">
	<path class="st3" d="M6.9,11.7L6,15.1H5.1L4.6,13c-0.1-0.1-0.1-0.2-0.1-0.4l0,0c0,0.2-0.1,0.3-0.1,0.4l-0.6,2.2H3L2,11.7h0.9
		L3.4,14c0,0.1,0.1,0.2,0.1,0.4l0,0c0-0.1,0.1-0.3,0.1-0.4l0.6-2.3h0.8L5.4,14c0,0.1,0.1,0.2,0.1,0.4l0,0c0-0.1,0-0.3,0.1-0.4
		L6,11.7H6.9z"/>
	<path class="st3" d="M8.7,15.2c-0.5,0-0.9-0.2-1.2-0.5c-0.3-0.3-0.5-0.8-0.5-1.2c0-0.5,0.2-1,0.5-1.3c0.3-0.3,0.7-0.5,1.2-0.5
		c0.5,0,0.9,0.2,1.2,0.5s0.4,0.8,0.4,1.2c0,0.5-0.2,1-0.5,1.3C9.6,15,9.3,15.2,8.7,15.2z M8.8,12.3c-0.3,0-0.5,0.1-0.6,0.3
		c-0.2,0.2-0.2,0.5-0.2,0.8s0.1,0.6,0.2,0.8c0.2,0.2,0.4,0.3,0.6,0.3s0.5-0.1,0.6-0.3c0.2-0.2,0.2-0.4,0.2-0.8s-0.1-0.6-0.2-0.8
		S9.1,12.3,8.8,12.3z"/>
	<path class="st3" d="M13.8,15.1H13l-0.5-0.9c-0.1-0.1-0.1-0.1-0.1-0.2c-0.1-0.1-0.1-0.1-0.1-0.1c-0.1-0.1-0.1-0.1-0.1-0.1
		c-0.1,0-0.1-0.1-0.1-0.1h-0.2v1.3H11v-3.4h1.2c0.8,0,1.2,0.3,1.2,0.9c0,0.1,0,0.2-0.1,0.3c-0.1,0.1-0.1,0.2-0.2,0.3
		s-0.2,0.2-0.2,0.2c-0.1,0.1-0.2,0.1-0.3,0.2l0,0c0.1,0,0.1,0.1,0.2,0.1c0.1,0.1,0.1,0.1,0.2,0.1s0.1,0.1,0.1,0.2
		c0.1,0.1,0.1,0.1,0.1,0.2L13.8,15.1z M11.7,12.3v1h0.3c0.2,0,0.3-0.1,0.4-0.2c0.1-0.1,0.2-0.2,0.2-0.4c0-0.3-0.2-0.4-0.5-0.4H11.7z
		"/>
	<path class="st3" d="M14.2,15.1v-3.4h1.2c1.2,0,1.8,0.5,1.8,1.7c0,0.5-0.2,1-0.5,1.3c-0.3,0.3-0.8,0.5-1.3,0.5L14.2,15.1L14.2,15.1
		z M14.9,12.3v2.2h0.4c0.3,0,0.6-0.1,0.8-0.3c0.2-0.2,0.3-0.5,0.3-0.8c0-0.3-0.1-0.6-0.3-0.8c-0.2-0.2-0.4-0.3-0.8-0.3H14.9z"/>
</g>
</svg>
